#N canvas 321 529 1021 682 10;
#X obj 458 544 dac~;
#N canvas 152 69 1124 1103 controlsurf 0;
#X obj 91 -42 r initsl;
#X obj 104 131 grid grid1 150 0 199 150 0 199 1 1 1 10 10 497 170;
#X floatatom 47 10 5 0 0 0 - - -, f 5;
#X floatatom 91 -8 5 0 0 0 - - -, f 5;
#X obj 47 39 pack f f;
#X msg 47 -19 bang;
#X msg 37 62 values \$1 \$2;
#X obj -22 338 / 200;
#X obj 341 308 / 200;
#X obj 341 336 s mix_y;
#X obj -22 363 s mix_x;
#X obj -21 410 s slider;
#X obj 107 293 hsl 145 15 0 3 0 0 empty empty empty -2 -8 0 10 #dcdcdc
#000000 #000000 2400 1;
#X obj 107 319 hsl 145 15 0 10 0 0 empty empty empty -2 -8 0 10 #dcdcdc
#000000 #000000 0 0;
#X text 51 297 VOLUME;
#X text 101 334 LEFT PANEL;
#X text 187 333 RIGHT PANEL;
#X text 256 269 SAMPLE 2;
#X text 256 125 SAMPLE 3;
#X text 50 124 SAMPLE 4;
#X text 51 269 SAMPLE 1;
#X obj -18 483 s mixleftright;
#X obj 326 -42 loadbang;
#X msg 326 -11 0;
#X text 135 108 TUNER CONTROL;
#N canvas 557 74 467 474 handle_button_color 0;
#X msg 213 331 \; foo5_rcv color \$1 \$2 \$3;
#X obj 213 310 pack 0 0 0;
#X obj 161 13 inlet;
#X msg 146 150 back;
#X msg 146 170 front;
#X msg 146 190 label;
#X msg 108 150 bang;
#N canvas 15 207 606 448 RGB_____________ 0;
#X obj 97 56 inlet;
#X obj 262 53 inlet;
#X obj 339 55 inlet;
#X obj 405 56 inlet;
#X obj 97 270 bang;
#X msg 77 295 0;
#X msg 104 295 1;
#X obj 146 268 bang;
#X msg 132 295 0;
#X msg 160 295 1;
#X obj 196 269 bang;
#X msg 187 295 0;
#X msg 214 295 1;
#X obj 265 313 spigot;
#X obj 312 313 spigot;
#X obj 359 313 spigot;
#X obj 249 385 outlet;
#X text 93 33 select;
#X text 267 28 red;
#X text 337 30 green;
#X text 409 30 blue;
#X obj 405 102 t b f;
#X obj 339 160 +;
#X obj 339 185 t b f;
#X obj 339 216 +;
#X obj 296 385 outlet;
#X obj 343 385 outlet;
#X obj 28 180 loadbang;
#X obj 97 135 route back front label bang;
#X obj 343 362 f;
#X obj 296 361 f;
#X obj 249 361 f;
#X obj 262 79 * -65536;
#X obj 339 80 * -256;
#X obj 405 80 * -1;
#X obj 339 247 - 1;
#X obj 235 168 t b b b b;
#X connect 0 0 28 0;
#X connect 1 0 32 0;
#X connect 2 0 33 0;
#X connect 3 0 34 0;
#X connect 4 0 5 0;
#X connect 4 0 6 0;
#X connect 5 0 14 1;
#X connect 5 0 15 1;
#X connect 6 0 13 1;
#X connect 7 0 8 0;
#X connect 7 0 9 0;
#X connect 8 0 13 1;
#X connect 8 0 15 1;
#X connect 9 0 14 1;
#X connect 10 0 11 0;
#X connect 10 0 12 0;
#X connect 11 0 13 1;
#X connect 11 0 14 1;
#X connect 12 0 15 1;
#X connect 13 0 31 1;
#X connect 14 0 30 1;
#X connect 15 0 29 1;
#X connect 21 0 22 0;
#X connect 21 1 22 1;
#X connect 22 0 23 0;
#X connect 23 0 24 0;
#X connect 23 1 24 1;
#X connect 24 0 35 0;
#X connect 27 0 6 0;
#X connect 28 0 4 0;
#X connect 28 1 7 0;
#X connect 28 2 10 0;
#X connect 28 3 36 0;
#X connect 29 0 26 0;
#X connect 30 0 25 0;
#X connect 31 0 16 0;
#X connect 32 0 24 0;
#X connect 33 0 22 0;
#X connect 34 0 21 0;
#X connect 35 0 15 0;
#X connect 35 0 14 0;
#X connect 35 0 13 0;
#X connect 36 0 31 0;
#X connect 36 1 30 0;
#X connect 36 2 29 0;
#X connect 36 3 35 0;
#X restore 146 216 pd RGB_____________;
#X floatatom 188 180 3 0 255 0 - - -, f 3;
#X floatatom 231 180 3 0 255 0 - - -, f 3;
#X floatatom 274 181 3 0 255 0 - - -, f 3;
#X text 188 162 red;
#X text 224 161 green;
#X text 272 161 blue;
#X msg 228 119 255;
#X obj 160 37 route 0 1;
#X obj 204 76 t b b f;
#X obj 90 72 t b b f;
#X msg 129 95 255;
#X msg 264 119 0;
#X msg 161 93 0;
#X obj 305 27 loadbang;
#X obj 311 63 t b b b;
#X connect 1 0 0 0;
#X connect 2 0 15 0;
#X connect 3 0 7 0;
#X connect 4 0 7 0;
#X connect 5 0 7 0;
#X connect 6 0 7 0;
#X connect 7 0 1 0;
#X connect 7 1 1 1;
#X connect 7 2 1 2;
#X connect 8 0 7 1;
#X connect 9 0 7 2;
#X connect 10 0 7 3;
#X connect 14 0 8 0;
#X connect 15 0 16 0;
#X connect 15 1 17 0;
#X connect 16 0 6 0;
#X connect 16 1 3 0;
#X connect 16 2 14 0;
#X connect 16 2 19 0;
#X connect 17 0 6 0;
#X connect 17 1 3 0;
#X connect 17 2 18 0;
#X connect 17 2 20 0;
#X connect 18 0 9 0;
#X connect 19 0 9 0;
#X connect 19 0 10 0;
#X connect 20 0 8 0;
#X connect 20 0 10 0;
#X connect 21 0 22 0;
#X connect 22 0 6 0;
#X connect 22 1 14 0;
#X connect 22 2 19 0;
#X restore 212 444 pd handle_button_color;
#X msg 107 495 \; pd dsp 1;
#X msg 173 494 \; pd dsp 0;
#X obj 107 360 bng 15 250 50 0 empty foo5_rcv empty 17 7 0 10 #00ff00
#fcfcfc #fcfcfc;
#X text 133 358 start/stop DSP;
#X obj 107 409 tgl 15 0 empty empty empty 17 7 0 10 #fcfcfc #000000
#000000 1 1;
#X obj 107 444 select 1;
#X obj 173 468 bng 15 250 50 0 empty empty empty 17 7 0 10 #fcfcfc
#000000 #000000;
#X obj 212 414 tgl 15 0 empty empty empty 17 7 0 10 #fcfcfc #000000
#000000 1 1;
#X obj 408 12 s initsl;
#X msg 408 -11 100;
#N canvas 990 510 580 491 handlegridcolor 0;
#X obj 54 289 line;
#X msg 54 356 \$1 \$2 \$3;
#X obj 54 320 pack f f f;
#X obj 91 289 line;
#X obj 130 289 line;
#X obj 56 124 t f f f;
#X obj 52 254 int;
#X obj 91 255 int;
#X obj 131 256 int;
#X floatatom 138 319 5 0 0 0 - - -, f 5;
#X floatatom 137 347 5 0 0 0 - - -, f 5;
#X floatatom 137 375 5 0 0 0 - - -, f 5;
#X obj 53 410 outlet;
#X obj 56 48 change;
#X floatatom 144 97 5 0 0 0 - - -, f 5;
#X obj 56 14 int;
#X msg 254 46 252 220 96;
#X text 250 25 giallo;
#X msg 253 96 196 196 252;
#X text 252 74 blu;
#X obj 56 75 / 10;
#X obj 122 181 expr 96 + $f1*(156);
#X obj 91 204 expr 220 - $f1*(24);
#X obj 52 227 expr 252 - $f1*(56);
#X obj 56 -23 r gridcolorinput;
#X obj 373 150 r mix_y;
#X obj 308 166 r mix_x;
#X obj 299 246 pack f f;
#X obj 298 143 t b b;
#X obj 298 213 f;
#X obj 344 219 f;
#X obj 299 413 outlet;
#X floatatom 405 224 10 0 0 0 - - -, f 10;
#X floatatom 248 235 10 0 0 0 - - -, f 10;
#X obj 366 190 * 200;
#X obj 310 190 * 200;
#X connect 0 0 2 0;
#X connect 0 0 11 0;
#X connect 1 0 12 0;
#X connect 2 0 1 0;
#X connect 3 0 2 1;
#X connect 3 0 10 0;
#X connect 4 0 2 2;
#X connect 4 0 9 0;
#X connect 5 0 23 0;
#X connect 5 1 22 0;
#X connect 5 2 21 0;
#X connect 6 0 0 0;
#X connect 7 0 3 0;
#X connect 8 0 4 0;
#X connect 13 0 20 0;
#X connect 13 0 28 0;
#X connect 15 0 13 0;
#X connect 20 0 5 0;
#X connect 21 0 8 0;
#X connect 22 0 7 0;
#X connect 23 0 6 0;
#X connect 24 0 15 0;
#X connect 24 0 14 0;
#X connect 25 0 34 0;
#X connect 26 0 35 0;
#X connect 27 0 31 0;
#X connect 28 0 29 0;
#X connect 28 1 30 0;
#X connect 29 0 27 0;
#X connect 30 0 27 1;
#X connect 34 0 30 1;
#X connect 34 0 32 0;
#X connect 35 0 29 1;
#X connect 35 0 33 0;
#X restore 152 4 pd handlegridcolor;
#X msg 362 40 color 252 220 96;
#X msg 154 26 color \$1 \$2 \$3;
#X obj -18 453 / 10;
#X text 21 451 [0-1];
#X obj -19 509 s gridcolorinput;
#X msg 208 59 values \$1 \$2;
#X msg 362 -11 0;
#X connect 0 0 3 0;
#X connect 0 0 2 0;
#X connect 1 0 7 0;
#X connect 1 1 8 0;
#X connect 2 0 4 0;
#X connect 3 0 4 1;
#X connect 3 0 5 0;
#X connect 4 0 6 0;
#X connect 5 0 2 0;
#X connect 6 0 1 0;
#X connect 7 0 10 0;
#X connect 8 0 9 0;
#X connect 12 0 11 0;
#X connect 13 0 39 0;
#X connect 13 0 41 0;
#X connect 22 0 23 0;
#X connect 22 0 43 0;
#X connect 22 0 37 0;
#X connect 22 0 35 0;
#X connect 23 0 13 0;
#X connect 23 0 27 0;
#X connect 28 0 30 0;
#X connect 28 0 33 0;
#X connect 30 0 31 0;
#X connect 31 0 26 0;
#X connect 31 1 32 0;
#X connect 32 0 27 0;
#X connect 33 0 25 0;
#X connect 35 0 34 0;
#X connect 36 0 38 0;
#X connect 36 1 42 0;
#X connect 37 0 1 0;
#X connect 38 0 1 0;
#X connect 39 0 21 0;
#X connect 42 0 1 0;
#X connect 43 0 12 0;
#X coords 0 -1 1 1 275 290 1 50 100;
#X restore 368 65 pd controlsurf;
#X obj 437 389 catch~ sumbusLL;
#X obj 461 417 catch~ sumbusRL;
#X obj 484 446 catch~ sumbusLR;
#X obj 507 473 catch~ sumbusRR;
#X obj 9 64 cnv 15 350 500 empty empty LEFT_PANEL 20 12 0 18 #fcdc60
#404040 0;
#X obj 20 105 loadbang;
#X obj 20 178 t b b;
#X obj 40 141 bng 15 250 50 0 empty empty empty 17 7 0 10 #fcfcfc #000000
#000000;
#N canvas 119 489 544 503 engine1 0;
#X obj 127 -297 inlet;
#X obj 127 -226 phasor~;
#X obj 128 -118 tabread4~ array3;
#X obj 128 -150 +~ 1;
#X obj 127 -186 *~;
#X obj 71 -172 -~ 0.5;
#X obj 71 -145 *~ 0.5;
#X obj 71 -120 cos~;
#X obj 71 -61 *~;
#X obj 71 -20 *~ 0.25;
#X obj 122 -43 r slider;
#X obj 347 -298 inlet;
#X obj 333 -148 +~ 1;
#X obj 332 -184 *~;
#X obj 276 -168 -~ 0.5;
#X obj 276 -141 *~ 0.5;
#X obj 276 -116 cos~;
#X obj 276 -47 *~;
#X obj 275 -18 *~ 0.25;
#X obj 274 22 throw~ bus1R;
#X obj 70 20 throw~ bus1L;
#X obj 333 -116 tabread4~ array3a;
#X obj 166 -274 r resynchL;
#X msg 166 -252 0;
#X obj 185 -92 r env1;
#X obj 326 -48 r slider;
#N canvas 0 0 450 300 spigot_tilde 0;
#X obj 64 45 inlet~;
#X obj 143 46 inlet;
#X obj 143 85 > 0;
#X obj 62 277 outlet~;
#X obj 64 181 *~ 1;
#X obj 143 151 f 0;
#X floatatom 95 105 5 0 0 0 - - -, f 5;
#X floatatom 143 172 5 0 0 0 - - -, f 5;
#X obj 262 208 line~;
#X msg 262 166 1;
#X msg 310 166 0;
#X obj 63 235 +~;
#X text 232 33 envelope selector;
#X obj 143 120 select 0;
#X connect 0 0 4 0;
#X connect 1 0 2 0;
#X connect 2 0 4 1;
#X connect 2 0 6 0;
#X connect 2 0 10 0;
#X connect 2 0 13 0;
#X connect 4 0 11 0;
#X connect 5 0 7 0;
#X connect 5 0 4 1;
#X connect 8 0 11 1;
#X connect 9 0 8 0;
#X connect 10 0 8 0;
#X connect 11 0 3 0;
#X connect 13 0 5 0;
#X connect 13 0 9 0;
#X restore 72 -91 pd spigot_tilde;
#X obj 7 -62 snapshot~;
#X floatatom 7 -35 5 0 0 0 - - -, f 5;
#X msg 10 -110 bang;
#X obj 388 -86 r env1;
#N canvas 0 0 450 300 spigot_tilde 0;
#X obj 64 45 inlet~;
#X obj 143 46 inlet;
#X obj 143 85 > 0;
#X obj 62 277 outlet~;
#X obj 64 181 *~ 1;
#X obj 143 151 f 0;
#X floatatom 95 105 5 0 0 0 - - -, f 5;
#X floatatom 143 172 5 0 0 0 - - -, f 5;
#X obj 262 208 line~;
#X msg 262 166 1;
#X msg 310 166 0;
#X obj 63 235 +~;
#X text 232 33 envelope selector;
#X obj 143 120 select 0;
#X connect 0 0 4 0;
#X connect 1 0 2 0;
#X connect 2 0 4 1;
#X connect 2 0 6 0;
#X connect 2 0 10 0;
#X connect 2 0 13 0;
#X connect 4 0 11 0;
#X connect 5 0 7 0;
#X connect 5 0 4 1;
#X connect 8 0 11 1;
#X connect 9 0 8 0;
#X connect 10 0 8 0;
#X connect 11 0 3 0;
#X connect 13 0 5 0;
#X connect 13 0 9 0;
#X restore 275 -85 pd spigot_tilde;
#X connect 0 0 1 0;
#X connect 1 0 4 0;
#X connect 1 0 5 0;
#X connect 1 0 13 0;
#X connect 1 0 14 0;
#X connect 2 0 8 1;
#X connect 3 0 2 0;
#X connect 4 0 3 0;
#X connect 5 0 6 0;
#X connect 6 0 7 0;
#X connect 7 0 26 0;
#X connect 8 0 9 0;
#X connect 9 0 20 0;
#X connect 10 0 9 1;
#X connect 11 0 4 1;
#X connect 11 0 13 1;
#X connect 12 0 21 0;
#X connect 13 0 12 0;
#X connect 14 0 15 0;
#X connect 15 0 16 0;
#X connect 16 0 31 0;
#X connect 17 0 18 0;
#X connect 18 0 19 0;
#X connect 21 0 17 1;
#X connect 22 0 23 0;
#X connect 23 0 1 1;
#X connect 24 0 26 1;
#X connect 25 0 18 1;
#X connect 26 0 8 0;
#X connect 26 0 27 0;
#X connect 27 0 28 0;
#X connect 29 0 27 0;
#X connect 30 0 31 1;
#X connect 31 0 17 0;
#X restore 12 296 pd engine1;
#X obj 260 140 samplerate~;
#X obj 11 407 catch~ bus1L;
#X obj 26 428 catch~ bus2L;
#X obj 90 407 catch~ bus3L;
#X obj 105 428 catch~ bus4L;
#X obj 169 407 catch~ bus1R;
#X obj 183 428 catch~ bus2R;
#X obj 248 407 catch~ bus3R;
#X obj 261 428 catch~ bus4R;
#N canvas 106 178 467 465 engine2 0;
#X obj 127 -254 inlet;
#X obj 127 -226 phasor~;
#X obj 128 -150 +~ 1;
#X obj 127 -186 *~;
#X obj 71 -170 -~ 0.5;
#X obj 71 -143 *~ 0.5;
#X obj 71 -118 cos~;
#X obj 73 -48 *~;
#X obj 69 -12 *~ 0.25;
#X obj 196 -159 r slider;
#X obj 211 -244 inlet;
#X obj 333 -148 +~ 1;
#X obj 332 -184 *~;
#X obj 276 -168 -~ 0.5;
#X obj 276 -141 *~ 0.5;
#X obj 276 -116 cos~;
#X obj 274 -33 *~;
#X obj 274 -10 *~ 0.25;
#X obj 128 -118 tabread4~ array4;
#X obj 333 -116 tabread4~ array4a;
#X obj 274 22 throw~ bus2R;
#X obj 69 20 throw~ bus2L;
#X obj 205 -290 r resynchL;
#X msg 204 -268 0;
#N canvas 1055 605 450 300 spigot_tilde 0;
#X obj 64 45 inlet~;
#X obj 143 46 inlet;
#X obj 143 85 > 0;
#X obj 62 277 outlet~;
#X obj 64 181 *~ 1;
#X obj 143 151 f 0;
#X floatatom 95 105 5 0 0 0 - - -, f 5;
#X floatatom 143 172 5 0 0 0 - - -, f 5;
#X obj 262 208 line~;
#X msg 262 166 1;
#X msg 310 166 0;
#X obj 63 235 +~;
#X text 232 33 envelope selector;
#X obj 143 120 select 0;
#X connect 0 0 4 0;
#X connect 1 0 2 0;
#X connect 2 0 4 1;
#X connect 2 0 6 0;
#X connect 2 0 10 0;
#X connect 2 0 13 0;
#X connect 4 0 11 0;
#X connect 5 0 7 0;
#X connect 5 0 4 1;
#X connect 8 0 11 1;
#X connect 9 0 8 0;
#X connect 10 0 8 0;
#X connect 11 0 3 0;
#X connect 13 0 5 0;
#X connect 13 0 9 0;
#X restore 72 -78 pd spigot_tilde;
#N canvas 0 0 450 300 spigot_tilde 0;
#X obj 64 45 inlet~;
#X obj 143 46 inlet;
#X obj 143 85 > 0;
#X obj 62 277 outlet~;
#X obj 64 181 *~ 1;
#X obj 143 151 f 0;
#X floatatom 95 105 5 0 0 0 - - -, f 5;
#X floatatom 143 172 5 0 0 0 - - -, f 5;
#X obj 262 208 line~;
#X msg 262 166 1;
#X msg 310 166 0;
#X obj 63 235 +~;
#X text 232 33 envelope selector;
#X obj 143 120 select 0;
#X connect 0 0 4 0;
#X connect 1 0 2 0;
#X connect 2 0 4 1;
#X connect 2 0 6 0;
#X connect 2 0 10 0;
#X connect 2 0 13 0;
#X connect 4 0 11 0;
#X connect 5 0 7 0;
#X connect 5 0 4 1;
#X connect 8 0 11 1;
#X connect 9 0 8 0;
#X connect 10 0 8 0;
#X connect 11 0 3 0;
#X connect 13 0 5 0;
#X connect 13 0 9 0;
#X restore 272 -69 pd spigot_tilde;
#X obj 185 -79 r env2;
#X obj 385 -70 r env2;
#X connect 0 0 1 0;
#X connect 1 0 3 0;
#X connect 1 0 4 0;
#X connect 1 0 12 0;
#X connect 1 0 13 0;
#X connect 2 0 18 0;
#X connect 3 0 2 0;
#X connect 4 0 5 0;
#X connect 5 0 6 0;
#X connect 6 0 24 0;
#X connect 7 0 8 0;
#X connect 8 0 21 0;
#X connect 9 0 8 1;
#X connect 9 0 17 1;
#X connect 10 0 3 1;
#X connect 10 0 12 1;
#X connect 11 0 19 0;
#X connect 12 0 11 0;
#X connect 13 0 14 0;
#X connect 14 0 15 0;
#X connect 15 0 25 0;
#X connect 16 0 17 0;
#X connect 17 0 20 0;
#X connect 18 0 7 1;
#X connect 19 0 16 1;
#X connect 22 0 23 0;
#X connect 23 0 1 1;
#X connect 24 0 7 0;
#X connect 25 0 16 0;
#X connect 26 0 24 1;
#X connect 27 0 25 1;
#X restore 99 296 pd engine2;
#N canvas 638 291 643 545 engine3 0;
#X obj 127 -254 inlet;
#X obj 127 -226 phasor~;
#X obj 128 -150 +~ 1;
#X obj 127 -186 *~;
#X obj 71 -170 -~ 0.5;
#X obj 71 -143 *~ 0.5;
#X obj 71 -118 cos~;
#X obj 70 -43 *~;
#X obj 70 -2 *~ 0.25;
#X obj 196 -159 r slider;
#X obj 211 -244 inlet;
#X obj 333 -148 +~ 1;
#X obj 332 -184 *~;
#X obj 276 -168 -~ 0.5;
#X obj 276 -141 *~ 0.5;
#X obj 276 -116 cos~;
#X obj 275 -41 *~;
#X obj 275 0 *~ 0.25;
#X obj 128 -118 tabread4~ array5;
#X obj 332 -116 tabread4~ array5a;
#X obj 276 101 throw~ bus3R;
#X obj 69 100 throw~ bus3L;
#X obj 193 -291 r resynchL;
#X msg 192 -269 0;
#N canvas 0 0 450 300 spigot_tilde 0;
#X obj 64 45 inlet~;
#X obj 143 46 inlet;
#X obj 143 85 > 0;
#X obj 62 277 outlet~;
#X obj 64 181 *~ 1;
#X obj 143 151 f 0;
#X floatatom 95 105 5 0 0 0 - - -, f 5;
#X floatatom 143 172 5 0 0 0 - - -, f 5;
#X obj 262 208 line~;
#X msg 262 166 1;
#X msg 310 166 0;
#X obj 63 235 +~;
#X text 232 33 envelope selector;
#X obj 143 120 select 0;
#X connect 0 0 4 0;
#X connect 1 0 2 0;
#X connect 2 0 4 1;
#X connect 2 0 6 0;
#X connect 2 0 10 0;
#X connect 2 0 13 0;
#X connect 4 0 11 0;
#X connect 5 0 7 0;
#X connect 5 0 4 1;
#X connect 8 0 11 1;
#X connect 9 0 8 0;
#X connect 10 0 8 0;
#X connect 11 0 3 0;
#X connect 13 0 5 0;
#X connect 13 0 9 0;
#X restore 272 -69 pd spigot_tilde;
#X obj 186 -79 r env3;
#X obj 385 -70 r env3;
#N canvas 0 0 450 300 spigot_tilde 0;
#X obj 64 45 inlet~;
#X obj 143 46 inlet;
#X obj 143 85 > 0;
#X obj 62 277 outlet~;
#X obj 64 181 *~ 1;
#X obj 143 151 f 0;
#X floatatom 95 105 5 0 0 0 - - -, f 5;
#X floatatom 143 172 5 0 0 0 - - -, f 5;
#X obj 262 208 line~;
#X msg 262 166 1;
#X msg 310 166 0;
#X obj 63 235 +~;
#X text 232 33 envelope selector;
#X obj 143 120 select 0;
#X connect 0 0 4 0;
#X connect 1 0 2 0;
#X connect 2 0 4 1;
#X connect 2 0 6 0;
#X connect 2 0 10 0;
#X connect 2 0 13 0;
#X connect 4 0 11 0;
#X connect 5 0 7 0;
#X connect 5 0 4 1;
#X connect 8 0 11 1;
#X connect 9 0 8 0;
#X connect 10 0 8 0;
#X connect 11 0 3 0;
#X connect 13 0 5 0;
#X connect 13 0 9 0;
#X restore 72 -78 pd spigot_tilde;
#N canvas 337 604 450 325 combbb 0;
#X floatatom 138 53 0 0 0 0 - - -;
#X text 168 52 <-- delay time;
#X text 367 151 write to delay line;
#X text 326 77 read from delay line;
#X text 152 124 add the original and the delayed signal;
#X obj 117 125 +~;
#X obj 138 101 *~ 0.7;
#X text 196 101 feedback gain;
#X obj 157 150 delwrite~ \$0-del 2000;
#X obj 138 77 delread~ \$0-del 160;
#X obj 63 38 inlet~;
#X obj 68 220 outlet~;
#X connect 0 0 9 0;
#X connect 5 0 8 0;
#X connect 5 0 11 0;
#X connect 6 0 5 1;
#X connect 9 0 6 0;
#X connect 10 0 5 0;
#X restore 484 -37 pd combbb;
#X connect 0 0 1 0;
#X connect 1 0 3 0;
#X connect 1 0 4 0;
#X connect 1 0 12 0;
#X connect 1 0 13 0;
#X connect 2 0 18 0;
#X connect 3 0 2 0;
#X connect 4 0 5 0;
#X connect 5 0 6 0;
#X connect 6 0 27 0;
#X connect 7 0 8 0;
#X connect 8 0 21 0;
#X connect 9 0 8 1;
#X connect 9 0 17 1;
#X connect 10 0 3 1;
#X connect 10 0 12 1;
#X connect 11 0 19 0;
#X connect 12 0 11 0;
#X connect 13 0 14 0;
#X connect 14 0 15 0;
#X connect 15 0 24 0;
#X connect 16 0 17 0;
#X connect 17 0 20 0;
#X connect 18 0 7 1;
#X connect 19 0 16 1;
#X connect 22 0 23 0;
#X connect 23 0 1 1;
#X connect 24 0 16 0;
#X connect 25 0 27 1;
#X connect 26 0 24 1;
#X connect 27 0 7 0;
#X restore 186 295 pd engine3;
#N canvas 0 0 450 300 engine4 0;
#X obj 127 -254 inlet;
#X obj 127 -226 phasor~;
#X obj 128 -150 +~ 1;
#X obj 127 -186 *~;
#X obj 71 -170 -~ 0.5;
#X obj 71 -143 *~ 0.5;
#X obj 71 -118 cos~;
#X obj 69 -43 *~;
#X obj 69 -2 *~ 0.25;
#X obj 196 -159 r slider;
#X obj 211 -244 inlet;
#X obj 333 -148 +~ 1;
#X obj 332 -184 *~;
#X obj 276 -168 -~ 0.5;
#X obj 276 -141 *~ 0.5;
#X obj 276 -116 cos~;
#X obj 274 -41 *~;
#X obj 274 0 *~ 0.25;
#X obj 128 -118 tabread4~ array6;
#X obj 333 -116 tabread4~ array6a;
#X obj 274 22 throw~ bus4R;
#X obj 69 20 throw~ bus4L;
#X obj 198 -293 r resynchL;
#X msg 197 -271 0;
#N canvas 0 0 450 300 spigot_tilde 0;
#X obj 64 45 inlet~;
#X obj 143 46 inlet;
#X obj 143 85 > 0;
#X obj 62 277 outlet~;
#X obj 64 181 *~ 1;
#X obj 143 151 f 0;
#X floatatom 95 105 5 0 0 0 - - -, f 5;
#X floatatom 143 172 5 0 0 0 - - -, f 5;
#X obj 262 208 line~;
#X msg 262 166 1;
#X msg 310 166 0;
#X obj 63 235 +~;
#X text 232 33 envelope selector;
#X obj 143 120 select 0;
#X connect 0 0 4 0;
#X connect 1 0 2 0;
#X connect 2 0 4 1;
#X connect 2 0 6 0;
#X connect 2 0 10 0;
#X connect 2 0 13 0;
#X connect 4 0 11 0;
#X connect 5 0 7 0;
#X connect 5 0 4 1;
#X connect 8 0 11 1;
#X connect 9 0 8 0;
#X connect 10 0 8 0;
#X connect 11 0 3 0;
#X connect 13 0 5 0;
#X connect 13 0 9 0;
#X restore 72 -78 pd spigot_tilde;
#N canvas 0 0 450 300 spigot_tilde 0;
#X obj 64 45 inlet~;
#X obj 143 46 inlet;
#X obj 143 85 > 0;
#X obj 62 277 outlet~;
#X obj 64 181 *~ 1;
#X obj 143 151 f 0;
#X floatatom 95 105 5 0 0 0 - - -, f 5;
#X floatatom 143 172 5 0 0 0 - - -, f 5;
#X obj 262 208 line~;
#X msg 262 166 1;
#X msg 310 166 0;
#X obj 63 235 +~;
#X text 232 33 envelope selector;
#X obj 143 120 select 0;
#X connect 0 0 4 0;
#X connect 1 0 2 0;
#X connect 2 0 4 1;
#X connect 2 0 6 0;
#X connect 2 0 10 0;
#X connect 2 0 13 0;
#X connect 4 0 11 0;
#X connect 5 0 7 0;
#X connect 5 0 4 1;
#X connect 8 0 11 1;
#X connect 9 0 8 0;
#X connect 10 0 8 0;
#X connect 11 0 3 0;
#X connect 13 0 5 0;
#X connect 13 0 9 0;
#X restore 273 -69 pd spigot_tilde;
#X obj 185 -79 r env4;
#X obj 386 -70 r env4;
#X connect 0 0 1 0;
#X connect 1 0 3 0;
#X connect 1 0 4 0;
#X connect 1 0 12 0;
#X connect 1 0 13 0;
#X connect 2 0 18 0;
#X connect 3 0 2 0;
#X connect 4 0 5 0;
#X connect 5 0 6 0;
#X connect 6 0 24 0;
#X connect 7 0 8 0;
#X connect 8 0 21 0;
#X connect 9 0 8 1;
#X connect 9 0 17 1;
#X connect 10 0 3 1;
#X connect 10 0 12 1;
#X connect 11 0 19 0;
#X connect 12 0 11 0;
#X connect 13 0 14 0;
#X connect 14 0 15 0;
#X connect 15 0 25 0;
#X connect 16 0 17 0;
#X connect 17 0 20 0;
#X connect 18 0 7 1;
#X connect 19 0 16 1;
#X connect 22 0 23 0;
#X connect 23 0 1 1;
#X connect 24 0 7 0;
#X connect 25 0 16 0;
#X connect 26 0 24 1;
#X connect 27 0 25 1;
#X restore 273 295 pd engine4;
#N canvas 4 404 1011 463 mixall--------------- 0;
#X obj 670 53 inlet;
#X obj 776 52 inlet;
#X obj 30 342 *~;
#X obj 167 338 *~;
#X obj 319 338 *~;
#X obj 455 338 *~;
#X obj 31 42 inlet~;
#X obj 76 43 inlet~;
#X obj 166 46 inlet~;
#X obj 214 46 inlet~;
#X obj 318 51 inlet~;
#X obj 362 52 inlet~;
#X obj 452 53 inlet~;
#X obj 496 52 inlet~;
#X text 642 211 w1;
#X text 709 210 w2;
#X text 781 210 w3;
#X text 845 210 w4;
#X obj 75 342 *~;
#X obj 212 339 *~;
#X obj 361 338 *~;
#X obj 497 336 *~;
#X floatatom 639 229 5 0 0 0 - - -, f 5;
#X floatatom 706 230 5 0 0 0 - - -, f 5;
#X floatatom 778 230 5 0 0 0 - - -, f 5;
#X floatatom 848 232 5 0 0 0 - - -, f 5;
#X obj 29 433 throw~ sumbusLL;
#X obj 169 433 throw~ sumbusLL;
#X obj 323 433 throw~ sumbusRL;
#X obj 455 434 throw~ sumbusRL;
#X text 608 360 bilinear interpolation on the grid points. In practise
it finds four weights to assign to the four active samples;
#N canvas 679 401 561 325 bilinear_interp 0;
#X obj 62 22 inlet;
#X obj 165 23 inlet;
#X obj 72 197 f;
#X text 104 195 w1;
#X obj 139 196 f;
#X text 171 194 w2;
#X obj 211 196 f;
#X text 243 194 w3;
#X obj 281 195 f;
#X text 307 194 w4;
#X obj 189 156 / 0.990025;
#X obj 259 156 / 0.990025;
#X obj 118 157 / 0.990025;
#X obj 50 157 / 0.990025;
#X obj 189 104 expr $f1*$f2;
#X obj 259 132 expr (0.995-$f1)*$f2;
#X obj 1 104 expr (0.995-$f1)*(0.995-$f2);
#X obj 118 132 expr $f1*(0.995-$f2);
#X obj 60 239 outlet;
#X obj 133 241 outlet;
#X obj 209 241 outlet;
#X obj 285 242 outlet;
#X text 287 18 bilinear interpolation (4 points);
#X text 286 37 grid output is 0-0.995 in both x-y;
#X connect 0 0 16 0;
#X connect 0 0 17 0;
#X connect 0 0 14 0;
#X connect 0 0 15 0;
#X connect 1 0 16 1;
#X connect 1 0 14 1;
#X connect 1 0 17 1;
#X connect 1 0 15 1;
#X connect 2 0 18 0;
#X connect 4 0 19 0;
#X connect 6 0 20 0;
#X connect 8 0 21 0;
#X connect 10 0 6 0;
#X connect 11 0 8 0;
#X connect 12 0 4 0;
#X connect 13 0 2 0;
#X connect 14 0 10 0;
#X connect 15 0 11 0;
#X connect 16 0 13 0;
#X connect 17 0 12 0;
#X restore 670 144 pd bilinear_interp;
#X obj 669 180 s w1;
#X obj 705 179 s w2;
#X obj 741 179 s w3;
#X obj 779 179 s w4;
#X obj 135 247 r w1;
#X obj 180 247 r w2;
#X obj 229 248 r w3;
#X obj 276 250 r w4;
#X floatatom 135 280 5 0 0 0 - - -, f 5;
#X floatatom 180 280 5 0 0 0 - - -, f 5;
#X floatatom 227 278 5 0 0 0 - - -, f 5;
#X floatatom 272 279 5 0 0 0 - - -, f 5;
#X connect 0 0 31 0;
#X connect 1 0 31 1;
#X connect 2 0 26 0;
#X connect 3 0 27 0;
#X connect 4 0 28 0;
#X connect 5 0 29 0;
#X connect 6 0 2 0;
#X connect 7 0 18 0;
#X connect 8 0 3 0;
#X connect 9 0 19 0;
#X connect 10 0 4 0;
#X connect 11 0 20 0;
#X connect 12 0 5 0;
#X connect 13 0 21 0;
#X connect 18 0 26 0;
#X connect 19 0 27 0;
#X connect 20 0 28 0;
#X connect 21 0 29 0;
#X connect 31 0 32 0;
#X connect 31 0 22 0;
#X connect 31 1 33 0;
#X connect 31 1 23 0;
#X connect 31 2 34 0;
#X connect 31 2 24 0;
#X connect 31 3 35 0;
#X connect 31 3 25 0;
#X connect 36 0 2 1;
#X connect 36 0 4 1;
#X connect 36 0 40 0;
#X connect 37 0 18 1;
#X connect 37 0 20 1;
#X connect 37 0 41 0;
#X connect 38 0 3 1;
#X connect 38 0 5 1;
#X connect 38 0 42 0;
#X connect 39 0 19 1;
#X connect 39 0 21 1;
#X connect 39 0 43 0;
#X restore 66 487 pd mixall---------------;
#X obj 256 474 r mix_y;
#X obj 257 454 r mix_x;
#X obj 652 65 cnv 15 350 500 empty empty RIGHT_PANEL 20 12 0 18 #c4c4fc
#404040 0;
#N canvas 0 196 1028 478 mixall--------------- 0;
#X obj 29 433 throw~ sumbusLR;
#X obj 169 433 throw~ sumbusLR;
#X obj 323 433 throw~ sumbusRR;
#X obj 455 434 throw~ sumbusRR;
#X obj 668 21 inlet;
#X obj 774 20 inlet;
#X obj 28 310 *~;
#X obj 165 306 *~;
#X obj 317 306 *~;
#X obj 453 306 *~;
#X obj 29 10 inlet~;
#X obj 74 11 inlet~;
#X obj 164 14 inlet~;
#X obj 212 14 inlet~;
#X obj 316 19 inlet~;
#X obj 360 20 inlet~;
#X obj 450 21 inlet~;
#X obj 494 20 inlet~;
#X text 640 179 w1;
#X text 707 178 w2;
#X text 779 178 w3;
#X text 843 178 w4;
#X obj 73 310 *~;
#X obj 210 307 *~;
#X obj 359 306 *~;
#X obj 495 304 *~;
#X floatatom 637 197 5 0 0 0 - - -, f 5;
#X floatatom 704 198 5 0 0 0 - - -, f 5;
#X floatatom 776 198 5 0 0 0 - - -, f 5;
#X floatatom 846 200 5 0 0 0 - - -, f 5;
#X text 606 328 bilinear interpolation on the grid points. In practise
it finds four weights to assign to the four active samples;
#N canvas 0 0 561 300 bilinear_interp 0;
#X obj 62 22 inlet;
#X obj 165 23 inlet;
#X obj 72 197 f;
#X text 104 195 w1;
#X obj 139 196 f;
#X text 171 194 w2;
#X obj 211 196 f;
#X text 243 194 w3;
#X obj 281 195 f;
#X text 307 194 w4;
#X obj 189 156 / 0.990025;
#X obj 259 156 / 0.990025;
#X obj 118 157 / 0.990025;
#X obj 50 157 / 0.990025;
#X obj 189 104 expr $f1*$f2;
#X obj 259 132 expr (0.995-$f1)*$f2;
#X obj 1 104 expr (0.995-$f1)*(0.995-$f2);
#X obj 118 132 expr $f1*(0.995-$f2);
#X obj 60 239 outlet;
#X obj 133 241 outlet;
#X obj 209 241 outlet;
#X obj 285 242 outlet;
#X text 287 18 bilinear interpolation (4 points);
#X text 286 37 grid output is 0-0.995 in both x-y;
#X connect 0 0 16 0;
#X connect 0 0 17 0;
#X connect 0 0 14 0;
#X connect 0 0 15 0;
#X connect 1 0 16 1;
#X connect 1 0 14 1;
#X connect 1 0 17 1;
#X connect 1 0 15 1;
#X connect 2 0 18 0;
#X connect 4 0 19 0;
#X connect 6 0 20 0;
#X connect 8 0 21 0;
#X connect 10 0 6 0;
#X connect 11 0 8 0;
#X connect 12 0 4 0;
#X connect 13 0 2 0;
#X connect 14 0 10 0;
#X connect 15 0 11 0;
#X connect 16 0 13 0;
#X connect 17 0 12 0;
#X restore 668 112 pd bilinear_interp;
#X obj 667 148 s w1;
#X obj 703 147 s w2;
#X obj 739 147 s w3;
#X obj 777 147 s w4;
#X obj 133 215 r w1;
#X obj 178 215 r w2;
#X obj 227 216 r w3;
#X obj 274 218 r w4;
#X connect 4 0 31 0;
#X connect 5 0 31 1;
#X connect 6 0 0 0;
#X connect 7 0 1 0;
#X connect 8 0 2 0;
#X connect 9 0 3 0;
#X connect 10 0 6 0;
#X connect 11 0 22 0;
#X connect 12 0 7 0;
#X connect 13 0 23 0;
#X connect 14 0 8 0;
#X connect 15 0 24 0;
#X connect 16 0 9 0;
#X connect 17 0 25 0;
#X connect 22 0 0 0;
#X connect 23 0 1 0;
#X connect 24 0 2 0;
#X connect 25 0 3 0;
#X connect 31 0 32 0;
#X connect 31 0 26 0;
#X connect 31 1 33 0;
#X connect 31 1 27 0;
#X connect 31 2 34 0;
#X connect 31 2 28 0;
#X connect 31 3 35 0;
#X connect 31 3 29 0;
#X connect 36 0 6 1;
#X connect 36 0 8 1;
#X connect 37 0 22 1;
#X connect 37 0 24 1;
#X connect 38 0 7 1;
#X connect 38 0 9 1;
#X connect 39 0 23 1;
#X connect 39 0 25 1;
#X restore 749 485 pd mixall---------------;
#X obj 920 463 r mix_y;
#X obj 920 441 r mix_x;
#X obj 666 97 loadbang;
#X obj 666 170 t b b;
#X obj 683 125 bng 15 250 50 0 empty empty empty 17 7 0 10 #fcfcfc
#000000 #000000;
#X obj 915 157 samplerate~;
#N canvas 0 0 525 448 engine5 0;
#X obj 127 -254 inlet;
#X obj 127 -226 phasor~;
#X obj 128 -150 +~ 1;
#X obj 127 -186 *~;
#X obj 71 -170 -~ 0.5;
#X obj 71 -143 *~ 0.5;
#X obj 71 -118 cos~;
#X obj 70 -22 *~;
#X obj 70 19 *~ 0.25;
#X obj 196 -159 r slider;
#X obj 246 -252 inlet;
#X obj 333 -148 +~ 1;
#X obj 332 -184 *~;
#X obj 276 -168 -~ 0.5;
#X obj 276 -141 *~ 0.5;
#X obj 276 -116 cos~;
#X obj 275 -20 *~;
#X obj 275 21 *~ 0.25;
#X obj 128 -118 tabread4~ array3R;
#X obj 333 -116 tabread4~ array3Ra;
#X obj 69 90 throw~ bus5L;
#X obj 274 92 throw~ bus5R;
#X msg 175 -253 0;
#X obj 167 -280 r resynchR;
#N canvas 0 0 450 300 spigot_tilde 0;
#X obj 64 45 inlet~;
#X obj 143 46 inlet;
#X obj 143 85 > 0;
#X obj 62 277 outlet~;
#X obj 64 181 *~ 1;
#X obj 143 151 f 0;
#X floatatom 95 105 5 0 0 0 - - -, f 5;
#X floatatom 143 172 5 0 0 0 - - -, f 5;
#X obj 262 208 line~;
#X msg 262 166 1;
#X msg 310 166 0;
#X obj 63 235 +~;
#X text 232 33 envelope selector;
#X obj 143 120 select 0;
#X connect 0 0 4 0;
#X connect 1 0 2 0;
#X connect 2 0 4 1;
#X connect 2 0 6 0;
#X connect 2 0 10 0;
#X connect 2 0 13 0;
#X connect 4 0 11 0;
#X connect 5 0 7 0;
#X connect 5 0 4 1;
#X connect 8 0 11 1;
#X connect 9 0 8 0;
#X connect 10 0 8 0;
#X connect 11 0 3 0;
#X connect 13 0 5 0;
#X connect 13 0 9 0;
#X restore 72 -72 pd spigot_tilde;
#N canvas 0 0 450 300 spigot_tilde 0;
#X obj 64 45 inlet~;
#X obj 143 46 inlet;
#X obj 143 85 > 0;
#X obj 62 277 outlet~;
#X obj 64 181 *~ 1;
#X obj 143 151 f 0;
#X floatatom 95 105 5 0 0 0 - - -, f 5;
#X floatatom 143 172 5 0 0 0 - - -, f 5;
#X obj 262 208 line~;
#X msg 262 166 1;
#X msg 310 166 0;
#X obj 63 235 +~;
#X text 232 33 envelope selector;
#X obj 143 120 select 0;
#X connect 0 0 4 0;
#X connect 1 0 2 0;
#X connect 2 0 4 1;
#X connect 2 0 6 0;
#X connect 2 0 10 0;
#X connect 2 0 13 0;
#X connect 4 0 11 0;
#X connect 5 0 7 0;
#X connect 5 0 4 1;
#X connect 8 0 11 1;
#X connect 9 0 8 0;
#X connect 10 0 8 0;
#X connect 11 0 3 0;
#X connect 13 0 5 0;
#X connect 13 0 9 0;
#X restore 275 -66 pd spigot_tilde;
#X obj 185 -73 r env5;
#X obj 388 -67 r env5;
#X connect 0 0 1 0;
#X connect 1 0 3 0;
#X connect 1 0 4 0;
#X connect 1 0 12 0;
#X connect 1 0 13 0;
#X connect 2 0 18 0;
#X connect 3 0 2 0;
#X connect 4 0 5 0;
#X connect 5 0 6 0;
#X connect 6 0 24 0;
#X connect 7 0 8 0;
#X connect 8 0 20 0;
#X connect 9 0 8 1;
#X connect 9 0 17 1;
#X connect 10 0 3 1;
#X connect 10 0 12 1;
#X connect 11 0 19 0;
#X connect 12 0 11 0;
#X connect 13 0 14 0;
#X connect 14 0 15 0;
#X connect 15 0 25 0;
#X connect 16 0 17 0;
#X connect 17 0 21 0;
#X connect 18 0 7 1;
#X connect 19 0 16 1;
#X connect 22 0 1 1;
#X connect 23 0 22 0;
#X connect 24 0 7 0;
#X connect 25 0 16 0;
#X connect 26 0 24 1;
#X connect 27 0 25 1;
#X restore 666 295 pd engine5;
#N canvas 0 0 450 300 engine6 0;
#X obj 127 -254 inlet;
#X obj 127 -226 phasor~;
#X obj 128 -150 +~ 1;
#X obj 127 -186 *~;
#X obj 71 -170 -~ 0.5;
#X obj 71 -143 *~ 0.5;
#X obj 71 -118 cos~;
#X obj 70 -3 *~;
#X obj 70 38 *~ 0.25;
#X obj 196 -159 r slider;
#X obj 211 -244 inlet;
#X obj 333 -148 +~ 1;
#X obj 332 -184 *~;
#X obj 276 -168 -~ 0.5;
#X obj 276 -141 *~ 0.5;
#X obj 276 -116 cos~;
#X obj 275 -1 *~;
#X obj 275 40 *~ 0.25;
#X obj 69 109 throw~ bus6L;
#X obj 274 111 throw~ bus6R;
#X obj 128 -118 tabread4~ array4R;
#X obj 333 -116 tabread4~ array4Ra;
#X msg 177 -256 0;
#X obj 169 -283 r resynchR;
#N canvas 0 0 450 300 spigot_tilde 0;
#X obj 64 45 inlet~;
#X obj 143 46 inlet;
#X obj 143 85 > 0;
#X obj 62 277 outlet~;
#X obj 64 181 *~ 1;
#X obj 143 151 f 0;
#X floatatom 95 105 5 0 0 0 - - -, f 5;
#X floatatom 143 172 5 0 0 0 - - -, f 5;
#X obj 262 208 line~;
#X msg 262 166 1;
#X msg 310 166 0;
#X obj 63 235 +~;
#X text 232 33 envelope selector;
#X obj 143 120 select 0;
#X connect 0 0 4 0;
#X connect 1 0 2 0;
#X connect 2 0 4 1;
#X connect 2 0 6 0;
#X connect 2 0 10 0;
#X connect 2 0 13 0;
#X connect 4 0 11 0;
#X connect 5 0 7 0;
#X connect 5 0 4 1;
#X connect 8 0 11 1;
#X connect 9 0 8 0;
#X connect 10 0 8 0;
#X connect 11 0 3 0;
#X connect 13 0 5 0;
#X connect 13 0 9 0;
#X restore 71 -66 pd spigot_tilde;
#N canvas 0 0 450 300 spigot_tilde 0;
#X obj 64 45 inlet~;
#X obj 143 46 inlet;
#X obj 143 85 > 0;
#X obj 62 277 outlet~;
#X obj 64 181 *~ 1;
#X obj 143 151 f 0;
#X floatatom 95 105 5 0 0 0 - - -, f 5;
#X floatatom 143 172 5 0 0 0 - - -, f 5;
#X obj 262 208 line~;
#X msg 262 166 1;
#X msg 310 166 0;
#X obj 63 235 +~;
#X text 232 33 envelope selector;
#X obj 143 120 select 0;
#X connect 0 0 4 0;
#X connect 1 0 2 0;
#X connect 2 0 4 1;
#X connect 2 0 6 0;
#X connect 2 0 10 0;
#X connect 2 0 13 0;
#X connect 4 0 11 0;
#X connect 5 0 7 0;
#X connect 5 0 4 1;
#X connect 8 0 11 1;
#X connect 9 0 8 0;
#X connect 10 0 8 0;
#X connect 11 0 3 0;
#X connect 13 0 5 0;
#X connect 13 0 9 0;
#X restore 274 -60 pd spigot_tilde;
#X obj 184 -67 r env6;
#X obj 387 -61 r env6;
#X connect 0 0 1 0;
#X connect 1 0 3 0;
#X connect 1 0 4 0;
#X connect 1 0 12 0;
#X connect 1 0 13 0;
#X connect 2 0 20 0;
#X connect 3 0 2 0;
#X connect 4 0 5 0;
#X connect 5 0 6 0;
#X connect 6 0 24 0;
#X connect 7 0 8 0;
#X connect 8 0 18 0;
#X connect 9 0 8 1;
#X connect 9 0 17 1;
#X connect 10 0 3 1;
#X connect 10 0 12 1;
#X connect 11 0 21 0;
#X connect 12 0 11 0;
#X connect 13 0 14 0;
#X connect 14 0 15 0;
#X connect 15 0 25 0;
#X connect 16 0 17 0;
#X connect 17 0 19 0;
#X connect 20 0 7 1;
#X connect 21 0 16 1;
#X connect 22 0 1 1;
#X connect 23 0 22 0;
#X connect 24 0 7 0;
#X connect 25 0 16 0;
#X connect 26 0 24 1;
#X connect 27 0 25 1;
#X restore 749 296 pd engine6;
#N canvas 0 0 467 360 engine7 0;
#X obj 127 -254 inlet;
#X obj 127 -226 phasor~;
#X obj 128 -150 +~ 1;
#X obj 127 -186 *~;
#X obj 71 -170 -~ 0.5;
#X obj 71 -143 *~ 0.5;
#X obj 71 -118 cos~;
#X obj 70 -21 *~;
#X obj 70 20 *~ 0.25;
#X obj 196 -159 r slider;
#X obj 211 -244 inlet;
#X obj 333 -148 +~ 1;
#X obj 332 -184 *~;
#X obj 276 -168 -~ 0.5;
#X obj 276 -141 *~ 0.5;
#X obj 276 -116 cos~;
#X obj 275 -19 *~;
#X obj 275 22 *~ 0.25;
#X obj 274 93 throw~ bus7R;
#X obj 69 91 throw~ bus7L;
#X obj 332 -116 tabread4~ array5Ra;
#X obj 128 -118 tabread4~ array5R;
#X msg 182 -263 0;
#X obj 174 -290 r resynchR;
#N canvas 0 0 450 300 spigot_tilde 0;
#X obj 64 45 inlet~;
#X obj 143 46 inlet;
#X obj 143 85 > 0;
#X obj 62 277 outlet~;
#X obj 64 181 *~ 1;
#X obj 143 151 f 0;
#X floatatom 95 105 5 0 0 0 - - -, f 5;
#X floatatom 143 172 5 0 0 0 - - -, f 5;
#X obj 262 208 line~;
#X msg 262 166 1;
#X msg 310 166 0;
#X obj 63 235 +~;
#X text 232 33 envelope selector;
#X obj 143 120 select 0;
#X connect 0 0 4 0;
#X connect 1 0 2 0;
#X connect 2 0 4 1;
#X connect 2 0 6 0;
#X connect 2 0 10 0;
#X connect 2 0 13 0;
#X connect 4 0 11 0;
#X connect 5 0 7 0;
#X connect 5 0 4 1;
#X connect 8 0 11 1;
#X connect 9 0 8 0;
#X connect 10 0 8 0;
#X connect 11 0 3 0;
#X connect 13 0 5 0;
#X connect 13 0 9 0;
#X restore 71 -66 pd spigot_tilde;
#N canvas 0 0 450 300 spigot_tilde 0;
#X obj 64 45 inlet~;
#X obj 143 46 inlet;
#X obj 143 85 > 0;
#X obj 62 277 outlet~;
#X obj 64 181 *~ 1;
#X obj 143 151 f 0;
#X floatatom 95 105 5 0 0 0 - - -, f 5;
#X floatatom 143 172 5 0 0 0 - - -, f 5;
#X obj 262 208 line~;
#X msg 262 166 1;
#X msg 310 166 0;
#X obj 63 235 +~;
#X text 232 33 envelope selector;
#X obj 143 120 select 0;
#X connect 0 0 4 0;
#X connect 1 0 2 0;
#X connect 2 0 4 1;
#X connect 2 0 6 0;
#X connect 2 0 10 0;
#X connect 2 0 13 0;
#X connect 4 0 11 0;
#X connect 5 0 7 0;
#X connect 5 0 4 1;
#X connect 8 0 11 1;
#X connect 9 0 8 0;
#X connect 10 0 8 0;
#X connect 11 0 3 0;
#X connect 13 0 5 0;
#X connect 13 0 9 0;
#X restore 274 -60 pd spigot_tilde;
#X obj 184 -67 r env7;
#X obj 387 -61 r env7;
#X connect 0 0 1 0;
#X connect 1 0 3 0;
#X connect 1 0 4 0;
#X connect 1 0 12 0;
#X connect 1 0 13 0;
#X connect 2 0 21 0;
#X connect 3 0 2 0;
#X connect 4 0 5 0;
#X connect 5 0 6 0;
#X connect 6 0 24 0;
#X connect 7 0 8 0;
#X connect 8 0 19 0;
#X connect 9 0 8 1;
#X connect 9 0 17 1;
#X connect 10 0 3 1;
#X connect 10 0 12 1;
#X connect 11 0 20 0;
#X connect 12 0 11 0;
#X connect 13 0 14 0;
#X connect 14 0 15 0;
#X connect 15 0 25 0;
#X connect 16 0 17 0;
#X connect 17 0 18 0;
#X connect 20 0 16 1;
#X connect 21 0 7 1;
#X connect 22 0 1 1;
#X connect 23 0 22 0;
#X connect 24 0 7 0;
#X connect 25 0 16 0;
#X connect 26 0 24 1;
#X connect 27 0 25 1;
#X restore 832 297 pd engine7;
#N canvas 0 0 450 548 engine8 0;
#X obj 127 -254 inlet;
#X obj 127 -226 phasor~;
#X obj 128 -150 +~ 1;
#X obj 127 -186 *~;
#X obj 71 -170 -~ 0.5;
#X obj 71 -143 *~ 0.5;
#X obj 71 -118 cos~;
#X obj 70 31 *~;
#X obj 70 72 *~ 0.25;
#X obj 196 -159 r slider;
#X obj 211 -244 inlet;
#X obj 333 -148 +~ 1;
#X obj 332 -184 *~;
#X obj 276 -168 -~ 0.5;
#X obj 276 -141 *~ 0.5;
#X obj 276 -116 cos~;
#X obj 275 33 *~;
#X obj 275 74 *~ 0.25;
#X obj 128 -118 tabread4~ array6R;
#X obj 333 -116 tabread4~ array6Ra;
#X obj 69 143 throw~ bus8L;
#X obj 274 145 throw~ bus8R;
#X msg 181 -264 0;
#X obj 173 -291 r resynchR;
#N canvas 0 0 450 300 spigot_tilde 0;
#X obj 64 45 inlet~;
#X obj 143 46 inlet;
#X obj 143 85 > 0;
#X obj 62 277 outlet~;
#X obj 64 181 *~ 1;
#X obj 143 151 f 0;
#X floatatom 95 105 5 0 0 0 - - -, f 5;
#X floatatom 143 172 5 0 0 0 - - -, f 5;
#X obj 262 208 line~;
#X msg 262 166 1;
#X msg 310 166 0;
#X obj 63 235 +~;
#X text 232 33 envelope selector;
#X obj 143 120 select 0;
#X connect 0 0 4 0;
#X connect 1 0 2 0;
#X connect 2 0 4 1;
#X connect 2 0 6 0;
#X connect 2 0 10 0;
#X connect 2 0 13 0;
#X connect 4 0 11 0;
#X connect 5 0 7 0;
#X connect 5 0 4 1;
#X connect 8 0 11 1;
#X connect 9 0 8 0;
#X connect 10 0 8 0;
#X connect 11 0 3 0;
#X connect 13 0 5 0;
#X connect 13 0 9 0;
#X restore 71 -66 pd spigot_tilde;
#N canvas 0 0 450 300 spigot_tilde 0;
#X obj 64 45 inlet~;
#X obj 143 46 inlet;
#X obj 143 85 > 0;
#X obj 62 277 outlet~;
#X obj 64 181 *~ 1;
#X obj 143 151 f 0;
#X floatatom 95 105 5 0 0 0 - - -, f 5;
#X floatatom 143 172 5 0 0 0 - - -, f 5;
#X obj 262 208 line~;
#X msg 262 166 1;
#X msg 310 166 0;
#X obj 63 235 +~;
#X text 232 33 envelope selector;
#X obj 143 120 select 0;
#X connect 0 0 4 0;
#X connect 1 0 2 0;
#X connect 2 0 4 1;
#X connect 2 0 6 0;
#X connect 2 0 10 0;
#X connect 2 0 13 0;
#X connect 4 0 11 0;
#X connect 5 0 7 0;
#X connect 5 0 4 1;
#X connect 8 0 11 1;
#X connect 9 0 8 0;
#X connect 10 0 8 0;
#X connect 11 0 3 0;
#X connect 13 0 5 0;
#X connect 13 0 9 0;
#X restore 274 -60 pd spigot_tilde;
#X obj 184 -67 r env8;
#X obj 387 -61 r env8;
#X connect 0 0 1 0;
#X connect 1 0 3 0;
#X connect 1 0 4 0;
#X connect 1 0 12 0;
#X connect 1 0 13 0;
#X connect 2 0 18 0;
#X connect 3 0 2 0;
#X connect 4 0 5 0;
#X connect 5 0 6 0;
#X connect 6 0 24 0;
#X connect 7 0 8 0;
#X connect 8 0 20 0;
#X connect 9 0 8 1;
#X connect 9 0 17 1;
#X connect 10 0 3 1;
#X connect 10 0 12 1;
#X connect 11 0 19 0;
#X connect 12 0 11 0;
#X connect 13 0 14 0;
#X connect 14 0 15 0;
#X connect 15 0 25 0;
#X connect 16 0 17 0;
#X connect 17 0 21 0;
#X connect 18 0 7 1;
#X connect 19 0 16 1;
#X connect 22 0 1 1;
#X connect 23 0 22 0;
#X connect 24 0 7 0;
#X connect 25 0 16 0;
#X connect 26 0 24 1;
#X connect 27 0 25 1;
#X restore 908 297 pd engine8;
#X obj 664 397 catch~ bus5L;
#X obj 685 417 catch~ bus6L;
#X obj 743 397 catch~ bus7L;
#X obj 763 418 catch~ bus8L;
#X obj 821 397 catch~ bus5R;
#X obj 841 418 catch~ bus6R;
#X obj 899 398 catch~ bus7R;
#X obj 919 418 catch~ bus8R;
#N canvas 1055 541 450 429 mixpanels 0;
#X obj 32 28 inlet~;
#X obj 77 28 inlet~;
#X obj 211 29 inlet~;
#X obj 256 29 inlet~;
#X obj 337 30 r mixleftright;
#X obj 163 240 outlet~;
#X obj 215 240 outlet~;
#X obj 136 182 *~;
#X obj 94 182 *~;
#X obj 274 181 *~;
#X obj 232 181 *~;
#X obj 324 111 -;
#X msg 310 81 1;
#X floatatom 373 152 5 0 0 0 - - -, f 5;
#X obj 284 322 env~;
#X floatatom 286 347 5 0 0 0 - - -, f 5;
#X floatatom 345 201 5 0 0 0 - - -, f 5;
#X obj 332 58 t b f;
#X connect 0 0 8 0;
#X connect 1 0 7 0;
#X connect 2 0 10 0;
#X connect 3 0 9 0;
#X connect 4 0 10 1;
#X connect 4 0 9 1;
#X connect 4 0 13 0;
#X connect 4 0 17 0;
#X connect 7 0 6 0;
#X connect 8 0 5 0;
#X connect 9 0 6 0;
#X connect 10 0 5 0;
#X connect 11 0 8 1;
#X connect 11 0 7 1;
#X connect 11 0 16 0;
#X connect 12 0 11 0;
#X connect 14 0 15 0;
#X connect 17 0 12 0;
#X connect 17 1 11 1;
#X restore 437 508 pd mixpanels;
#N canvas 947 413 666 685 tables 0;
#N canvas 0 0 450 300 (subpatch) 0;
#X array array3 352800 float 2 black black;
#X coords 0 1 352800 -1 200 140 1;
#X restore 57 110 graph;
#N canvas 0 0 450 300 (subpatch) 0;
#X array array4 176400 float 2 black black;
#X coords 0 1 176400 -1 200 140 1;
#X restore 58 273 graph;
#N canvas 0 0 450 300 (subpatch) 0;
#X array array5 352800 float 2 black black;
#X coords 0 1 352800 -1 200 140 1;
#X restore 57 436 graph;
#N canvas 0 0 450 300 (subpatch) 0;
#X array array6 352800 float 2 black black;
#X coords 0 1 352800 -1 200 140 1;
#X restore 58 597 graph;
#N canvas 0 0 450 300 (subpatch) 0;
#X array array3a 352800 float 2 black black;
#X coords 0 1 352800 -1 200 140 1;
#X restore 272 111 graph;
#N canvas 0 0 450 300 (subpatch) 0;
#X array array4a 176400 float 2 black black;
#X coords 0 1 176400 -1 200 140 1;
#X restore 272 275 graph;
#N canvas 0 0 450 300 (subpatch) 0;
#X array array5a 352800 float 2 black black;
#X coords 0 1 352800 -1 200 140 1;
#X restore 271 438 graph;
#N canvas 0 0 450 300 (subpatch) 0;
#X array array6a 352800 float 2 black black;
#X coords 0 1 352800 -1 200 140 1;
#X restore 271 599 graph;
#X text 227 64 stereo tables;
#X restore 16 538 pd tables;
#N canvas 116 35 666 678 tables1 0;
#N canvas 0 0 450 300 (subpatch) 0;
#X array array3R 352800 float 2 black black;
#X coords 0 1 352800 -1 200 140 1;
#X restore 57 110 graph;
#N canvas 0 0 450 300 (subpatch) 0;
#X array array4R 352800 float 2 black black;
#X coords 0 1 352800 -1 200 140 1;
#X restore 58 273 graph;
#N canvas 0 0 450 300 (subpatch) 0;
#X array array5R 352800 float 2 black black;
#X coords 0 1 352800 -1 200 140 1;
#X restore 57 436 graph;
#N canvas 0 0 450 300 (subpatch) 0;
#X array array6R 352800 float 2 black black;
#X coords 0 1 352800 -1 200 140 1;
#X restore 58 597 graph;
#N canvas 0 0 450 300 (subpatch) 0;
#X array array3Ra 352800 float 2 black black;
#X coords 0 1 352800 -1 200 140 1;
#X restore 272 111 graph;
#N canvas 0 0 450 300 (subpatch) 0;
#X array array4Ra 352800 float 2 black black;
#X coords 0 1 352800 -1 200 140 1;
#X restore 272 275 graph;
#N canvas 0 0 450 300 (subpatch) 0;
#X array array5Ra 352800 float 2 black black;
#X coords 0 1 352800 -1 200 140 1;
#X restore 271 438 graph;
#N canvas 0 0 450 300 (subpatch) 0;
#X array array6Ra 352800 float 2 black black;
#X coords 0 1 352800 -1 200 140 1;
#X restore 271 599 graph;
#X text 227 64 stereo tables;
#X restore 656 543 pd tables1;
#X obj 697 220 bng 15 250 50 0 empty empty empty 17 7 0 10 #fcfcfc
#000000 #000000;
#X obj 697 247 openpanel;
#X obj 780 221 bng 15 250 50 0 empty empty empty 17 7 0 10 #fcfcfc
#000000 #000000;
#X obj 780 247 openpanel;
#X obj 863 220 bng 15 250 50 0 empty empty empty 17 7 0 10 #fcfcfc
#000000 #000000;
#X obj 863 248 openpanel;
#X obj 939 220 bng 15 250 50 0 empty empty empty 17 7 0 10 #fcfcfc
#000000 #000000;
#X obj 939 248 openpanel;
#X obj 25 232 bng 15 250 50 0 empty empty empty 17 7 0 10 #fcfcfc #000000
#000000;
#X obj 25 255 openpanel;
#X obj 111 231 bng 15 250 50 0 empty empty empty 17 7 0 10 #fcfcfc
#000000 #000000;
#X obj 111 256 openpanel;
#X obj 197 231 bng 15 250 50 0 empty empty empty 17 7 0 10 #fcfcfc
#000000 #000000;
#X obj 198 255 openpanel;
#X obj 284 232 bng 15 250 50 0 empty empty empty 17 7 0 10 #fcfcfc
#000000 #000000;
#X obj 284 255 openpanel;
#X obj 92 519 bng 15 250 50 0 empty empty empty 17 7 0 10 #fcfcfc #000000
#000000;
#X obj 92 539 s resynchL;
#X text 117 517 resynch samples after manual load;
#X obj 733 522 bng 15 250 50 0 empty empty empty 17 7 0 10 #fcfcfc
#000000 #000000;
#X text 754 520 resynch samples after manual load;
#X obj 733 542 s resynchR;
#X text 63 140 reload default samples;
#X text 22 209 ----------- manually load samples ------------------
;
#X text 675 196 ----------- manually load samples ------------------
;
#X text 707 123 reload default samples;
#X text 8 15 Enveloping sampler with 4 (stereo) wavetable crossfading
;
#X text 7 33 and two independent panels;
#N canvas 333 205 467 429 readsam1 0;
#X obj 108 162 soundfiler;
#X obj 106 241 /;
#X floatatom 61 215 9 0 0 0 - - -, f 9;
#X obj 105 323 /;
#X msg 105 296 1;
#X obj 105 269 t b f;
#X text 161 261 cross-fade between the two tables;
#X obj 108 5 inlet;
#X obj 104 348 outlet;
#X obj 219 4 inlet;
#X obj 177 352 outlet;
#X obj 106 203 t f f;
#X msg 129 139 read -resize \$1 array3 array3a;
#X obj 157 5 inlet;
#X msg 108 38 read -resize 18567__sonicfire__ambienza_sequencer_07_120bpm_cmin.wav
array3 array3a;
#X connect 0 0 2 0;
#X connect 0 0 11 0;
#X connect 1 0 5 0;
#X connect 3 0 8 0;
#X connect 4 0 3 0;
#X connect 5 0 4 0;
#X connect 5 1 3 1;
#X connect 7 0 14 0;
#X connect 9 0 1 1;
#X connect 11 0 1 0;
#X connect 11 1 10 0;
#X connect 12 0 0 0;
#X connect 13 0 12 0;
#X connect 14 0 0 0;
#X restore 12 276 pd readsam1;
#N canvas 977 541 605 428 readsam2 0;
#X obj 131 156 soundfiler;
#X obj 129 238 /;
#X obj 128 320 /;
#X msg 128 293 1;
#X obj 128 266 t b f;
#X obj 130 14 inlet;
#X obj 129 357 outlet;
#X obj 288 17 inlet;
#X obj 130 188 t f f;
#X obj 206 360 outlet;
#X obj 195 10 inlet;
#X msg 150 57 read -resize \$1 array4 array4a;
#X msg 122 90 read -resize 18573__sonicfire__ambienza_synthetic_line_02_Cmin.wav
array4 array4a;
#X connect 0 0 8 0;
#X connect 1 0 4 0;
#X connect 2 0 6 0;
#X connect 3 0 2 0;
#X connect 4 0 3 0;
#X connect 4 1 2 1;
#X connect 5 0 12 0;
#X connect 7 0 1 1;
#X connect 8 0 1 0;
#X connect 8 1 9 0;
#X connect 10 0 11 0;
#X connect 11 0 0 0;
#X connect 12 0 0 0;
#X restore 99 276 pd readsam2;
#N canvas 0 0 534 386 readsam3 0;
#X obj 141 129 soundfiler;
#X obj 136 192 /;
#X obj 135 274 /;
#X msg 135 247 1;
#X obj 135 220 t b f;
#X obj 141 17 inlet;
#X obj 136 311 outlet;
#X obj 279 23 inlet;
#X obj 127 156 t f f;
#X obj 206 313 outlet;
#X obj 195 16 inlet;
#X msg 149 54 read -resize \$1 array5 array5a;
#X msg 138 88 read -resize 18550__sonicfire__ambienza_beatloop_04_120.wav
array5 array5a;
#X connect 0 0 8 0;
#X connect 1 0 4 0;
#X connect 2 0 6 0;
#X connect 3 0 2 0;
#X connect 4 0 3 0;
#X connect 4 1 2 1;
#X connect 5 0 12 0;
#X connect 7 0 1 1;
#X connect 8 0 1 0;
#X connect 8 1 9 0;
#X connect 10 0 11 0;
#X connect 11 0 0 0;
#X connect 12 0 0 0;
#X restore 186 275 pd readsam3;
#N canvas 136 689 568 375 readsam4 0;
#X obj 140 132 soundfiler;
#X obj 138 212 /;
#X obj 137 294 /;
#X msg 137 267 1;
#X obj 137 240 t b f;
#X obj 141 17 inlet;
#X obj 138 331 outlet;
#X obj 292 10 inlet;
#X obj 139 169 t f f;
#X obj 226 336 outlet;
#X obj 196 16 inlet;
#X msg 170 64 read -resize \$1 array6 array6a;
#X msg 141 83 read -resize 18571__sonicfire__ambienza_synthetic_line_01_Cmin.wav
array6 array6a;
#X connect 0 0 8 0;
#X connect 1 0 4 0;
#X connect 2 0 6 0;
#X connect 3 0 2 0;
#X connect 4 0 3 0;
#X connect 4 1 2 1;
#X connect 5 0 12 0;
#X connect 7 0 1 1;
#X connect 8 0 1 0;
#X connect 8 1 9 0;
#X connect 10 0 11 0;
#X connect 11 0 0 0;
#X connect 12 0 0 0;
#X restore 273 275 pd readsam4;
#N canvas 389 173 467 429 readsam5 0;
#X obj 107 109 soundfiler;
#X obj 105 188 /;
#X floatatom 60 162 9 0 0 0 - - -, f 9;
#X obj 104 270 /;
#X msg 104 243 1;
#X obj 104 216 t b f;
#X text 160 208 cross-fade between the two tables;
#X obj 108 5 inlet;
#X obj 103 295 outlet;
#X obj 232 5 inlet;
#X obj 176 299 outlet;
#X obj 105 150 t f f;
#X msg 114 80 read -resize \$1 array3R array3Ra;
#X obj 167 5 inlet;
#X msg 108 38 read -resize 19786__Jovica__Aerobic_Loop_01.wav array3R
array3Ra;
#X connect 0 0 2 0;
#X connect 0 0 11 0;
#X connect 1 0 5 0;
#X connect 3 0 8 0;
#X connect 4 0 3 0;
#X connect 5 0 4 0;
#X connect 5 1 3 1;
#X connect 7 0 14 0;
#X connect 9 0 1 1;
#X connect 11 0 1 0;
#X connect 11 1 10 0;
#X connect 12 0 0 0;
#X connect 13 0 12 0;
#X connect 14 0 0 0;
#X restore 666 275 pd readsam5;
#N canvas 75 301 579 317 readsam6 0;
#X obj 138 112 soundfiler;
#X obj 136 192 /;
#X obj 135 274 /;
#X msg 135 247 1;
#X obj 135 220 t b f;
#X obj 141 17 inlet;
#X obj 136 311 outlet;
#X obj 288 17 inlet;
#X obj 137 142 t f f;
#X obj 213 314 outlet;
#X obj 221 12 inlet;
#X msg 202 76 read -resize \$1 array4R array4Ra;
#X msg 141 43 read -resize 19788__Jovica__Aerobic_Loop_03.wav array4R
array4Ra;
#X connect 0 0 8 0;
#X connect 1 0 4 0;
#X connect 2 0 6 0;
#X connect 3 0 2 0;
#X connect 4 0 3 0;
#X connect 4 1 2 1;
#X connect 5 0 12 0;
#X connect 7 0 1 1;
#X connect 8 0 1 0;
#X connect 8 1 9 0;
#X connect 10 0 11 0;
#X connect 11 0 0 0;
#X connect 12 0 0 0;
#X restore 749 276 pd readsam6;
#N canvas 204 527 553 317 readsam7 0;
#X obj 131 121 soundfiler;
#X obj 137 189 /;
#X obj 136 271 /;
#X msg 136 244 1;
#X obj 136 217 t b f;
#X obj 141 17 inlet;
#X obj 137 308 outlet;
#X obj 279 23 inlet;
#X obj 128 153 t f f;
#X obj 207 310 outlet;
#X obj 214 19 inlet;
#X msg 206 50 read -resize \$1 array5R array5Ra;
#X msg 139 77 read -resize 19943__Jovica__Aerobic_Loop_13.wav array5R
array5Ra;
#X connect 0 0 8 0;
#X connect 1 0 4 0;
#X connect 2 0 6 0;
#X connect 3 0 2 0;
#X connect 4 0 3 0;
#X connect 4 1 2 1;
#X connect 5 0 12 0;
#X connect 7 0 1 1;
#X connect 8 0 1 0;
#X connect 8 1 9 0;
#X connect 10 0 11 0;
#X connect 11 0 0 0;
#X connect 12 0 0 0;
#X restore 832 277 pd readsam7;
#N canvas 337 7 568 317 readsam8 0;
#X obj 138 120 soundfiler;
#X obj 136 186 /;
#X obj 135 268 /;
#X msg 135 241 1;
#X obj 135 214 t b f;
#X obj 138 17 inlet;
#X obj 136 305 outlet;
#X obj 292 10 inlet;
#X obj 137 143 t f f;
#X obj 224 310 outlet;
#X obj 197 17 inlet;
#X msg 165 53 read -resize \$1 array6R array6Ra;
#X msg 138 82 read -resize 19945__Jovica__Aerobic_Loop_15.wav array6R
array6Ra;
#X connect 0 0 8 0;
#X connect 1 0 4 0;
#X connect 2 0 6 0;
#X connect 3 0 2 0;
#X connect 4 0 3 0;
#X connect 4 1 2 1;
#X connect 5 0 12 0;
#X connect 7 0 1 1;
#X connect 8 0 1 0;
#X connect 8 1 9 0;
#X connect 10 0 11 0;
#X connect 11 0 0 0;
#X connect 12 0 0 0;
#X restore 908 277 pd readsam8;
#X obj 57 337 tgl 15 1 env1 empty empty 17 7 0 10 #fcfcfc #000000 #000000
0 1;
#X obj 130 337 tgl 15 1 env2 empty empty 17 7 0 10 #fcfcfc #000000
#000000 0 1;
#X obj 202 337 tgl 15 1 env3 empty empty 17 7 0 10 #fcfcfc #000000
#000000 0 1;
#X obj 271 337 tgl 15 1 env4 empty empty 17 7 0 10 #fcfcfc #000000
#000000 0 1;
#X obj 690 337 tgl 15 1 env5 empty empty 17 7 0 10 #fcfcfc #000000
#000000 0 1;
#X obj 758 338 tgl 15 1 env6 empty empty 17 7 0 10 #fcfcfc #000000
#000000 0 1;
#X obj 838 339 tgl 15 1 env7 empty empty 17 7 0 10 #fcfcfc #000000
#000000 0 1;
#X obj 911 339 tgl 15 1 env8 empty empty 17 7 0 10 #fcfcfc #000000
#000000 0 1;
#X text 57 317 ----------- Envelopes ------------------;
#X text 686 319 ----------- Envelopes ------------------;
#X text 41 351 sample1;
#X text 115 352 sample2;
#X text 188 353 sample3;
#X text 257 353 sample4;
#X text 675 355 sample1;
#X text 749 356 sample2;
#X text 822 357 sample3;
#X text 891 357 sample4;
#X text 686 374 ----------- Output ------------------;
#X text 58 379 ----------- Output ------------------;
#X text 196 33 AZ2009-2020;
#X connect 2 0 46 0;
#X connect 3 0 46 1;
#X connect 4 0 46 2;
#X connect 5 0 46 3;
#X connect 7 0 8 0;
#X connect 8 0 77 0;
#X connect 8 0 78 0;
#X connect 8 0 79 0;
#X connect 8 0 80 0;
#X connect 8 1 11 0;
#X connect 9 0 8 0;
#X connect 11 0 77 2;
#X connect 11 0 78 2;
#X connect 11 0 79 2;
#X connect 11 0 80 2;
#X connect 12 0 23 0;
#X connect 13 0 23 1;
#X connect 14 0 23 2;
#X connect 15 0 23 3;
#X connect 16 0 23 4;
#X connect 17 0 23 5;
#X connect 18 0 23 6;
#X connect 19 0 23 7;
#X connect 24 0 23 9;
#X connect 25 0 23 8;
#X connect 28 0 27 9;
#X connect 29 0 27 8;
#X connect 30 0 31 0;
#X connect 31 0 81 0;
#X connect 31 0 82 0;
#X connect 31 0 83 0;
#X connect 31 0 84 0;
#X connect 31 1 33 0;
#X connect 32 0 31 0;
#X connect 33 0 81 2;
#X connect 33 0 82 2;
#X connect 33 0 83 2;
#X connect 33 0 84 2;
#X connect 38 0 27 0;
#X connect 39 0 27 1;
#X connect 40 0 27 2;
#X connect 41 0 27 3;
#X connect 42 0 27 4;
#X connect 43 0 27 5;
#X connect 44 0 27 6;
#X connect 45 0 27 7;
#X connect 46 0 0 0;
#X connect 46 1 0 1;
#X connect 49 0 50 0;
#X connect 50 0 81 1;
#X connect 51 0 52 0;
#X connect 52 0 82 1;
#X connect 53 0 54 0;
#X connect 54 0 83 1;
#X connect 55 0 56 0;
#X connect 56 0 84 1;
#X connect 57 0 58 0;
#X connect 58 0 77 1;
#X connect 59 0 60 0;
#X connect 60 0 78 1;
#X connect 61 0 62 0;
#X connect 62 0 79 1;
#X connect 63 0 64 0;
#X connect 64 0 80 1;
#X connect 65 0 66 0;
#X connect 68 0 70 0;
#X connect 77 0 10 0;
#X connect 77 1 10 1;
#X connect 78 0 20 0;
#X connect 78 1 20 1;
#X connect 79 0 21 0;
#X connect 79 1 21 1;
#X connect 80 0 22 0;
#X connect 80 1 22 1;
#X connect 81 0 34 0;
#X connect 81 1 34 1;
#X connect 82 0 35 0;
#X connect 82 1 35 1;
#X connect 83 0 36 0;
#X connect 83 1 36 1;
#X connect 84 0 37 0;
#X connect 84 1 37 1;
